<svg xmlns="http://www.w3.org/2000/svg" xmlns:xlink="http://www.w3.org/1999/xlink" width="56.718" height="36.3" viewBox="0 0 56.718 36.3"><defs><clipPath id="a"><rect width="56.718" height="36.3" fill="#fff"/></clipPath></defs><g clip-path="url(#a)"><path d="M196.157,16.726a3.4,3.4,0,1,0-3.4-3.4,3.4,3.4,0,0,0,3.4,3.4" transform="translate(-154.188 -7.934)" fill="#fff"/><path d="M194.954,26.966a3.39,3.39,0,0,1,.509-1.386l7.138-13.6a10.3,10.3,0,0,0,1.176-4.788c0-4.8-3.136-7.15-9.588-7.191V.061c2.953,0,4.451,1.531,4.451,4.55a13.012,13.012,0,0,1-1.844,5.414l-8.11,15.547a6.224,6.224,0,0,1-1.807,2.366,2.67,2.67,0,0,1-1.25.416v.005H197.9c-1.953,0-2.944-.469-2.944-1.392" transform="translate(-148.487 0.001)" fill="#fff"/><path d="M122.546,0H109.571V.066c2.211.052,3.331,1.09,3.331,3.09V27.314c0,5.92-1.461,8.921-4.342,8.921a3.741,3.741,0,0,1-3.67-2.111l-.052.024a3.768,3.768,0,0,0,3.722,2.152c3.448,0,6.362-1.093,8.166-3.683,1.816-2.61,2.487-6.223,2.487-10.3V3.156c0-2,1.121-3.039,3.332-3.09Z" transform="translate(-83.862)" fill="#fff"/><path d="M262.77,114.129c-.278,3.665-1.989,5.523-5.086,5.523h5.159v-5.523Z" transform="translate(-206.123 -91.293)" fill="#fff"/><path d="M36.949,28.292v.067H50.041v-.068A3.947,3.947,0,0,1,46.1,25.314L38.927,2.988C38.284,1,37.394,0,36.281,0H28.347V.068a4.013,4.013,0,0,1,3.9,2.974l.376,1.151,6.8,21.18a4.483,4.483,0,0,1,.26,1.314c0,1.033-.919,1.573-2.73,1.606" transform="translate(-22.675)" fill="#fff"/><path d="M4.167,124.768a4.861,4.861,0,0,1,.268-1.431l.111-.4H4.478l-.1.34A4.405,4.405,0,0,1,0,126.624v.076H7.587v-.075c-2.27-.034-3.42-.659-3.42-1.857" transform="translate(0 -98.342)" fill="#fff"/></g></svg>