<svg width="39" height="29" fill="none" xmlns="http://www.w3.org/2000/svg"><path d="M38.266 21.09a53.161 53.161 0 0 0-.868-5.985 45.661 45.661 0 0 0-1.28-4.928c-.45-1.41-.984-2.79-1.6-4.133a20.682 20.682 0 0 0-1.292-2.429.653.653 0 0 0-.17-.18c-.795-.581-1.633-1.1-2.506-1.554A17.827 17.827 0 0 0 26.408.307 14.132 14.132 0 0 0 24.642.01c-.214-.022-.224 0-.312.175-.088.174-.176.355-.263.531-.067.138-.063.147.084.184 1.248.303 2.465.723 3.636 1.253.753.35 1.477.763 2.163 1.233.585.404 1.132.853 1.674 1.311.185.153.356.317.534.477a.258.258 0 0 1-.14-.035c-.633-.317-1.261-.645-1.9-.945a28.551 28.551 0 0 0-2.71-1.122 22.962 22.962 0 0 0-5.306-1.174 34.77 34.77 0 0 0-2.65-.146c-.575-.014-1.157.021-1.739.044-.81.033-1.617.107-2.42.223-1.72.244-3.41.686-5.031 1.316A40.998 40.998 0 0 0 6.386 5.13a.282.282 0 0 1-.142.056c0-.04.03-.054.053-.068.5-.44 1.008-.869 1.54-1.269a16.335 16.335 0 0 1 4.667-2.455c.575-.19 1.15-.357 1.739-.49.146-.034.15-.044.083-.184-.054-.115-.112-.226-.17-.343-.241-.47-.1-.393-.625-.328-1.36.178-2.693.531-3.965 1.05a18.868 18.868 0 0 0-3.742 1.994 2.38 2.38 0 0 0-.8.74 28.306 28.306 0 0 0-1.583 3.198 40.68 40.68 0 0 0-1.934 5.826A49.69 49.69 0 0 0 .53 17.73c-.1.691-.2 1.384-.27 2.08-.056.568-.122 1.135-.172 1.704-.038.416-.057.833-.086 1.25a.305.305 0 0 0 .087.234c.463.515.96.998 1.485 1.448a14.981 14.981 0 0 0 3.6 2.24 17.528 17.528 0 0 0 4.2 1.267c.61.11 1.226.178 1.845.201a.233.233 0 0 0 .22-.108c.125-.178.26-.353.39-.53l.856-1.15c.088-.12.083-.138-.058-.192l-.05-.017a17.585 17.585 0 0 1-4-2.049A17.504 17.504 0 0 1 5.6 21.519c-.083-.091-.163-.187-.244-.281.043.01.082.031.116.06.545.403 1.107.781 1.688 1.135 1.205.73 2.483 1.33 3.813 1.792a23.13 23.13 0 0 0 4.946 1.109 23.89 23.89 0 0 0 2.124.165c.976.026 1.954.036 2.93-.034.67-.046 1.339-.1 2-.19a22.471 22.471 0 0 0 3.857-.847 20.25 20.25 0 0 0 5.747-2.872l.488-.351a.652.652 0 0 1-.036.063 17.361 17.361 0 0 1-5.028 3.934c-.714.373-1.453.695-2.211.966-.16.057-.169.077-.093.18.424.57.849 1.14 1.271 1.714a.221.221 0 0 0 .2.095c.44-.01.88-.05 1.315-.118a17.853 17.853 0 0 0 3.7-.929 15.621 15.621 0 0 0 3.957-2.126 14.41 14.41 0 0 0 2.161-1.995.304.304 0 0 0 .084-.234 49.13 49.13 0 0 0-.12-1.664Zm-27.513-9.992a.606.606 0 0 1 .862-.013c.544.529 1.074 1.075 1.609 1.613.055.055.09.101.02.177l-.799.806c-.584-.584-1.157-1.14-1.71-1.713a.6.6 0 0 1 .018-.873v.003Zm.844 6.101a.616.616 0 0 1-.84-.03.603.603 0 0 1-.152-.666.605.605 0 0 1 .13-.202c.04-.045.084-.085.125-.129l4.927-4.968a.74.74 0 0 1 .567-.284.61.61 0 0 1 .56.398.622.622 0 0 1 .04.24.569.569 0 0 1-.151.402c-.052.06-.112.115-.168.172l-4.864 4.903c-.058.049-.113.11-.176.16l.002.005Zm4.422.067a.783.783 0 0 1-.163-.129c-.5-.501-1-1.006-1.5-1.512-.15-.153-.15-.16-.007-.309.2-.207.409-.408.61-.617.083-.086.146-.113.243-.013.523.536 1.052 1.064 1.576 1.597a.555.555 0 0 1 .172.418.63.63 0 0 1-.303.554.618.618 0 0 1-.628.005v.006Zm5.583-5.965a.605.605 0 0 1 .514-.384.626.626 0 0 1 .479.161c.536.538 1.068 1.079 1.606 1.613.084.085.08.142 0 .222-.222.216-.44.436-.654.66-.09.094-.156.087-.245 0-.524-.536-1.057-1.063-1.58-1.6a.587.587 0 0 1-.12-.677v.005Zm6.329 5.545a.629.629 0 0 1-.399.465.62.62 0 0 1-.601-.1 4.737 4.737 0 0 1-.385-.377c-.409-.412-.813-.826-1.227-1.232-.1-.101-.109-.164 0-.265.251-.241.493-.493.727-.728.058.01.11.04.148.085l1.541 1.553a.625.625 0 0 1 .195.595v.004Zm-.092-4.967a1.428 1.428 0 0 1-.2.226l-4.919 4.962a.701.701 0 0 1-.656.273.619.619 0 0 1-.479-.393.628.628 0 0 1 .097-.615c.03-.039.064-.075.1-.11l5.026-5.068a.629.629 0 0 1 .46-.237.597.597 0 0 1 .58.303.582.582 0 0 1-.009.655v.004Z" fill="currentColor"/></svg>