<svg width="31" height="31" fill="none" xmlns="http://www.w3.org/2000/svg"><path d="M24.364 31H6.395c-.261-.036-.524-.066-.785-.112a6.778 6.778 0 0 1-3.987-2.31 6.877 6.877 0 0 1-1.613-4.343c-.012-5.811-.012-11.621 0-17.43.005-.444.052-.886.14-1.321a6.852 6.852 0 0 1 2.32-3.903A6.753 6.753 0 0 1 6.705.01c5.762-.013 11.525-.013 17.288 0a6.784 6.784 0 0 1 4.766 2.015c.94.95 1.583 2.159 1.849 3.475.058.313.093.63.14.945v18.117c-.037.262-.067.526-.111.789a6.882 6.882 0 0 1-1.826 3.576 6.791 6.791 0 0 1-3.5 1.93c-.31.06-.628.096-.947.143Zm2.584-15.517h.028c0-.921.015-1.842 0-2.762a56.162 56.162 0 0 0-.116-2.871 6.662 6.662 0 0 0-.745-2.65 6.09 6.09 0 0 0-1.89-2.167 6.028 6.028 0 0 0-2.664-1.05 16.41 16.41 0 0 0-2.742-.195 513.9 513.9 0 0 0-5.847-.013c-1.14-.019-2.28.032-3.415.151-.938.1-1.846.396-2.664.871a6.122 6.122 0 0 0-1.975 1.89 6.179 6.179 0 0 0-.961 2.569c-.137.872-.2 1.754-.187 2.637-.008 2.637 0 5.275.024 7.913-.006.869.097 1.734.305 2.577.189.799.538 1.55 1.025 2.207a5.966 5.966 0 0 0 1.812 1.614 7.37 7.37 0 0 0 3.533.928 97.53 97.53 0 0 0 3.433.058c1.892 0 3.784-.009 5.676-.027.767.006 1.533-.07 2.284-.228a5.957 5.957 0 0 0 2.996-1.492 6.032 6.032 0 0 0 1.733-2.881c.252-.919.372-1.87.359-2.823.01-1.422-.002-2.84-.002-4.256Z" fill="#000"/><path d="M5.808 15.486c.016-1.34.024-2.68.05-4.02-.01-.768.068-1.536.234-2.286a3.94 3.94 0 0 1 1.17-2.087A3.886 3.886 0 0 1 9.416 6.08a11.681 11.681 0 0 1 1.89-.171c1.8-.032 3.6-.041 5.394-.038 1.111 0 2.222.029 3.333.061a6.27 6.27 0 0 1 2.207.404c.59.228 1.116.6 1.53 1.08.415.482.706 1.058.847 1.68.141.53.217 1.076.225 1.625.03 1.845.05 3.69.064 5.536.006 1.078-.01 2.158-.033 3.234.01.78-.07 1.558-.238 2.319a3.945 3.945 0 0 1-1.167 2.073 3.891 3.891 0 0 1-2.14 1.013c-.625.109-1.257.167-1.89.172-1.8.032-3.6.041-5.407.04-1.113 0-2.224-.031-3.335-.062a6.316 6.316 0 0 1-2.194-.403 3.859 3.859 0 0 1-1.543-1.086 3.902 3.902 0 0 1-.85-1.694 9.924 9.924 0 0 1-.252-2.353c-.03-1.34-.03-2.682-.05-4.023Zm15.522 0a6.05 6.05 0 0 0-1.747-4.252 5.956 5.956 0 0 0-1.936-1.302 5.917 5.917 0 0 0-2.283-.455c-.784 0-1.56.154-2.283.456a5.955 5.955 0 0 0-1.935 1.303A6.048 6.048 0 0 0 9.4 15.488a6.01 6.01 0 0 0 1.742 4.254 5.952 5.952 0 0 0 1.934 1.305c.723.302 1.5.458 2.283.457a5.915 5.915 0 0 0 2.287-.455 5.956 5.956 0 0 0 1.938-1.306 6.046 6.046 0 0 0 1.743-4.262l.002.005Z" fill="#000"/><path d="M19.253 15.496a3.949 3.949 0 0 1-1.157 2.78 3.886 3.886 0 0 1-2.771 1.13 3.876 3.876 0 0 1-2.737-1.18 3.94 3.94 0 0 1 .063-5.542 3.875 3.875 0 0 1 2.762-1.117 3.88 3.88 0 0 1 2.72 1.17 3.942 3.942 0 0 1 1.12 2.759Z" fill="#000"/><path d="M21.405 9.283a1.72 1.72 0 0 1-.408-.08 1.548 1.548 0 0 1-.228-.1l.152-.392c.085.04.185.078.3.112.114.032.236.048.364.048.149 0 .253-.018.312-.056.058-.04.088-.101.088-.184a.212.212 0 0 0-.036-.124.282.282 0 0 0-.1-.092.639.639 0 0 0-.16-.076l-.216-.08a2.384 2.384 0 0 1-.228-.092.935.935 0 0 1-.2-.124.63.63 0 0 1-.144-.18.605.605 0 0 1-.052-.264.647.647 0 0 1 .124-.408.615.615 0 0 1 .176-.152.853.853 0 0 1 .264-.104v-.388h.456v.368c.122.011.23.03.324.056.096.027.17.051.224.072l-.112.412a1.713 1.713 0 0 0-.276-.084 1.3 1.3 0 0 0-.324-.04c-.128 0-.218.023-.268.068a.213.213 0 0 0-.072.16c0 .043.008.079.024.108.018.027.045.051.08.072.037.022.08.043.132.064a2.91 2.91 0 0 1 .468.192.944.944 0 0 1 .228.152.62.62 0 0 1 .204.472c0 .072-.011.144-.032.216a.572.572 0 0 1-.108.196.658.658 0 0 1-.196.156.953.953 0 0 1-.304.092v.428h-.456v-.424Z" fill="currentColor"/></svg>