<svg width="35" height="29" fill="none" xmlns="http://www.w3.org/2000/svg"><path d="M33.307 3.712c-.914.334-1.86.57-2.821.706-.034.005-.08.024-.117-.017.026-.059.085-.078.13-.108A7.105 7.105 0 0 0 33.218.85c.017-.046.035-.092.047-.138.012-.045.06-.1.019-.133-.042-.032-.088.018-.127.04-.43.249-.872.475-1.324.678-.906.403-1.85.71-2.818.92a.273.273 0 0 1-.289-.092A6.825 6.825 0 0 0 24.794.095a6.828 6.828 0 0 0-3.32.263 6.873 6.873 0 0 0-2.807 1.804 6.875 6.875 0 0 0-1.99 4.418 6.772 6.772 0 0 0 .117 1.978c.035.162.019.18-.128.169a20.704 20.704 0 0 1-2.967-.403A19.947 19.947 0 0 1 4.46 3.579a19.776 19.776 0 0 1-2-2.103c-.139-.17-.147-.17-.255.033a7.044 7.044 0 0 0-.814 2.722 7.085 7.085 0 0 0 1.146 4.6 6.904 6.904 0 0 0 1.746 1.832c.049.033.09.077.117.13-.143-.012-.288-.016-.431-.032a6.868 6.868 0 0 1-2.417-.724c-.033-.018-.07-.034-.1-.052-.108-.064-.145-.024-.145.093a5.71 5.71 0 0 0 .17 1.497 7.041 7.041 0 0 0 1.877 3.469 6.952 6.952 0 0 0 3.437 1.899l.076.022c-.027.042-.066.041-.1.05a6.91 6.91 0 0 1-2.793.107c-.19-.031-.21-.008-.141.177a7.06 7.06 0 0 0 1.989 2.972 6.979 6.979 0 0 0 3.18 1.603c.342.082.69.13 1.041.146a.63.63 0 0 1 .257.05A14.167 14.167 0 0 1 0 24.977c0 .072.053.085.089.107a19.816 19.816 0 0 0 7.132 2.774c.87.16 1.75.256 2.633.291a.926.926 0 0 1 .127.022h1.5c.227-.033.457-.048.686-.044a19.758 19.758 0 0 0 7.066-1.748 18.574 18.574 0 0 0 4.189-2.647 20.105 20.105 0 0 0 4.81-5.917 21.239 21.239 0 0 0 2.225-6.29c.17-.915.274-1.84.312-2.769.028-.532.028-1.064 0-1.596a.236.236 0 0 1 .13-.222 13.97 13.97 0 0 0 1.655-1.442 14.69 14.69 0 0 0 1.609-1.98c.033-.048.07-.09.107-.135v-.03c-.328.115-.645.243-.963.361Zm-11.65.653a.388.388 0 0 1 .333-.25.397.397 0 0 1 .309.102c.347.347.69.696 1.039 1.043.055.054.05.09 0 .143-.143.14-.284.28-.422.425-.059.062-.1.058-.158 0-.34-.345-.683-.687-1.02-1.034a.38.38 0 0 1-.083-.43h.002Zm4.089 3.582a.403.403 0 0 1-.463.323.399.399 0 0 1-.186-.088 3.221 3.221 0 0 1-.25-.243c-.263-.265-.524-.533-.791-.796-.066-.065-.07-.1 0-.171.163-.156.318-.318.469-.47.039.005.075.025.1.055l.995 1.008a.402.402 0 0 1 .124.381l.002.001Zm-.06-3.208a.911.911 0 0 1-.126.146l-3.178 3.207a.454.454 0 0 1-.424.175.399.399 0 0 1-.307-.253.405.405 0 0 1 .06-.395.701.701 0 0 1 .066-.07c1.082-1.093 2.164-2.185 3.247-3.276a.41.41 0 0 1 .3-.153.385.385 0 0 1 .375.201.375.375 0 0 1-.015.416l.002.002Z" fill="currentColor"/></svg>