<?xml version="1.0" encoding="utf-8"?>
<!-- Generator: Adobe Illustrator 26.3.1, SVG Export Plug-In . SVG Version: 6.00 Build 0)  -->
<svg version="1.1" id="Layer_1" xmlns="http://www.w3.org/2000/svg" xmlns:xlink="http://www.w3.org/1999/xlink" x="0px" y="0px"
	 viewBox="0 0 462 40.7" style="enable-background:new 0 0 462 40.7;" xml:space="preserve">
  <path id="Path_60" class="st0" d="M5.6,5.9c-3.7,4-5.8,9.3-5.6,14.7C0,27,2,31.1,5.6,34.7s8.2,5.7,14.6,6c4.5,0.3,9-0.6,13-2.5v-3.9
    c-8.1,2.9-16.9,2.7-22-4.2C7,24.3,7.1,14.9,12.4,9.3c5.6-5.9,15.3-4.8,20.8-2.7V2.7C29.2,0.9,24.9,0,20.5,0C14.5,0,9,2.2,5.6,5.9"/>
  <path id="Path_61" class="st0" d="M58.1,0c-6,0-10.8,1.8-14.3,5.5s-5.3,8.6-5.3,14.8c0,6.2,1.8,11.1,5.3,14.8s8.2,5.5,14.1,5.5
    c6.2,0,11-1.8,14.6-5.5c3.6-3.6,5.3-8.6,5.3-14.9c0-6.2-1.8-11.1-5.3-14.8C68.8,1.8,64,0,58.1,0 M66.4,31.8
    c-1.9,2.8-5.1,4.5-8.4,4.3c-3.8,0-6.2-1.9-8.2-4.7S47,24.8,47,20.3c0-4.6,0.8-8.8,2.8-11.5c1.8-2.7,4.8-4.3,8-4.3
    c3.4-0.1,6.6,1.6,8.5,4.4c2,2.7,2.8,6.8,2.8,11.3C69.1,24.9,68.4,29.1,66.4,31.8"/>
  <rect id="Rectangle_59" x="87.7" y="17.6" class="st0" width="22" height="4.6"/>
  <path id="Path_62" class="st0" d="M127.2,1h-8.6v38.7h26v-4.5h-17.5V1z"/>
  <rect id="Rectangle_60" x="151.1" y="1" class="st0" width="8.6" height="38.7"/>
  <path id="Path_63" class="st0" d="M186.4,30.9L174.8,1h-8.6l14.3,38.7h7.6L202,1h-4.8L186.4,30.9z"/>
  <rect id="Rectangle_61" x="208.7" y="1" class="st0" width="8.6" height="38.7"/>
  <path id="Path_64" class="st0" d="M254.1,29.7L231.6,1h-5.8v38.7h4.5l0.1-28l21.6,28h6.6V1h-4.5L254.1,29.7z"/>
  <path id="Path_69" class="st0" d="M271.8,5.9c-3.7,4-5.8,9.3-5.6,14.7c0,6.4,2,10.5,5.6,14.1s8.2,5.7,14.6,6c4.5,0.3,9-0.6,13-2.5
    v-0.2h0V20.3h-6.5v14.9c-6,1.1-11.7-0.2-15.5-5.3c-4.2-5.7-4.1-15.1,1.2-20.7c5.6-5.9,15.2-4.8,20.8-2.7V2.7
    c-4-1.7-8.3-2.6-12.7-2.7C280.7,0,275.2,2.2,271.8,5.9"/>
  <path id="Path_65" class="st0" d="M340.9,17.1l-2.8-1.5c-2.1-1.2-3-1.8-3.7-2.7c-0.8-0.9-1.2-2-1.1-3.2c0-1.5,0.7-2.9,1.9-3.7
    c1.2-0.8,2.6-1.3,4-1.2c3,0.1,5.9,0.8,8.7,1.9V2.8c-3.2-1.5-6.8-2.4-10.4-2.5c-3.3-0.2-6.6,0.9-9.2,2.9c-2.3,1.9-3.6,4.7-3.5,7.6
    c0,2.3,0.7,4.5,2.1,6.2c2.1,2.3,4.5,4.2,7.3,5.6l2.6,1.4c1.6,0.8,3,1.8,4.2,3.1c1.9,2.3,1.5,5.6-0.7,7.4c-1.4,1-3.1,1.6-4.8,1.6
    c-3.6,0-7.2-0.7-10.6-1.9v3.9c3.4,1.6,7,2.5,10.8,2.5c4.7,0,8.3-1,11-3c2.6-2,4.1-5.1,4-8.4c0.1-2.3-0.7-4.6-2.1-6.4
    C347.2,21.1,344.6,19.2,340.9,17.1"/>
  <path id="Path_66" class="st0" d="M376.1,0c-6,0-10.7,1.8-14.2,5.5s-5.3,8.5-5.3,14.7c0,6.1,1.7,11,5.2,14.7c3.5,3.7,8.2,5.5,14,5.5
    c6.1,0,10.9-1.8,14.5-5.4s5.3-8.6,5.3-14.8c0-6.1-1.8-11-5.3-14.6C386.7,1.8,382,0,376.1,0 M384.3,31.6c-1.9,2.8-5,4.4-8.4,4.3
    c-3.8,0-6.1-1.9-8.1-4.6s-2.7-6.6-2.7-11.1c0-4.5,0.8-8.7,2.8-11.4c1.8-2.7,4.8-4.2,7.9-4.2c3.4-0.1,6.6,1.6,8.4,4.4
    c2,2.7,2.8,6.7,2.8,11.2C387.1,24.7,386.3,28.9,384.3,31.6"/>
  <path id="Path_67" class="st0" d="M411.2,5.8h15.7V1.3h-24.2v38.4h8.5v-17h12.8v-4.5h-12.8V5.8z"/>
  <path id="Path_68" class="st0" d="M447,1.3h-6.9l-13.7,38.4h4.5l3.9-10.9h14.6l4.2,10.9h8.4L447,1.3z M436.4,24.3l5.3-14.9l5.8,14.9
    L436.4,24.3z"/>
</svg>
